<svg width="244" height="143" viewBox="0 0 244 143" fill="none" xmlns="http://www.w3.org/2000/svg">
<g id="Group">
<path id="Vector" d="M200.001 37.6C201.711 34.9 203.251 32.13 205.111 29.59C208.581 24.85 212.771 20.87 218.691 19.47C231.171 16.52 239.731 22.28 241.811 33.69C242.861 39.46 242.971 45.43 243.051 51.32C243.111 55.96 240.951 59.71 236.701 62.01C233.131 63.95 230.431 63.53 228.291 60.12C227.171 58.34 226.601 56.05 226.361 53.92C226.101 51.6 226.651 49.2 226.571 46.85C226.471 43.93 226.371 40.95 225.711 38.13C225.071 35.39 222.851 33.9 219.991 33.65C215.451 33.25 209.251 36.51 206.881 40.43C209.441 42.4 212.161 44.18 214.521 46.35C220.511 51.86 221.241 60.31 216.481 66.84C214.181 70 210.491 71.12 206.871 69.66C201.721 67.59 199.161 63.38 198.001 58.26C197.471 55.91 197.501 53.43 197.261 51.01C197.221 50.6 197.091 50.21 197.091 50.21C194.401 53.87 192.001 58.02 188.761 61.36C182.651 67.66 175.161 70.73 166.231 68.52C161.611 67.37 157.841 64.8 155.311 60.73C152.521 56.24 154.081 50.19 159.001 45.64C164.771 40.3 171.821 37.86 179.421 36.83C182.551 36.41 185.761 36.58 188.921 36.35C189.481 36.31 190.451 35.61 190.451 35.23C190.381 30.23 189.801 25.34 186.811 21.08C186.431 20.54 186.021 19.99 185.521 19.57C184.051 18.33 182.491 16.79 180.421 17.7C178.261 18.65 177.611 20.81 177.431 23.02C177.351 24.04 177.521 25.08 177.551 26.12C177.631 29.42 176.341 32.15 174.001 34.42C171.691 36.66 169.231 36.62 167.061 34.23C164.491 31.4 163.621 27.84 163.431 24.21C163.041 17.17 165.051 10.75 169.281 5.10999C173.011 0.129988 178.551 -0.890012 184.051 2.02999C190.411 5.39999 193.891 11.04 196.271 17.48C197.471 20.72 198.421 24.1 199.051 27.49C199.651 30.78 199.701 34.17 200.001 37.6ZM189.131 45.88C183.501 46.28 178.041 46.19 173.331 49.48C172.231 50.25 171.301 51.43 170.601 52.6C168.741 55.71 169.831 58.81 173.291 59.79C177.191 60.89 181.011 60.4 183.931 57.32C186.831 54.26 188.271 50.42 189.131 45.88ZM204.111 47.27C202.291 51.76 203.501 56.94 206.761 59.39C209.001 61.08 211.641 61.14 213.221 59.53C214.861 57.86 214.931 54.91 213.301 52.83C210.961 49.87 207.771 48.33 204.111 47.27Z" fill="white"/>
<path id="Vector_2" d="M38.0111 48.21C36.5911 52.29 35.4111 56.48 33.6811 60.43C30.7411 67.13 26.1811 72.44 19.1211 75.16C13.8111 77.21 8.57111 76.23 5.74111 72.51C2.89111 68.75 3.40111 64.55 4.76111 60.45C6.89111 54.03 11.4011 49.44 17.0611 46.13C20.9811 43.83 25.2911 42.2 29.5011 40.43C30.6411 39.95 31.1411 39.51 31.0811 38.24C30.7711 31.53 29.0911 25.26 25.2311 19.69C22.7011 16.05 20.0111 14.94 17.2911 16.27C13.9211 17.91 12.6511 21.44 13.4011 25.5C14.1111 29.31 14.7311 33.22 14.6211 37.06C14.4911 41.53 10.9211 43.05 7.09111 40.75C4.61111 39.26 3.15111 36.98 2.18111 34.38C-0.498891 27.21 -0.828894 19.96 1.86111 12.72C4.84111 4.69999 11.9411 1.46999 19.9111 4.55999C27.9011 7.64999 32.7811 13.7 35.6111 21.59C37.4511 26.71 38.3211 32.01 38.4411 37.44C38.4611 38.54 38.6911 39.25 40.0111 39.31C46.8211 39.65 52.6011 44.64 53.9111 52.06C54.9311 57.82 54.4511 63.4 51.1211 68.46C50.8011 68.95 50.4411 69.43 50.0511 69.87C46.7111 73.74 43.0211 73.23 41.3911 68.36C40.5011 65.7 40.4011 62.73 40.2011 59.89C40.0411 57.54 40.4911 55.14 40.2311 52.81C40.0411 51.11 39.1511 49.5 38.5711 47.84C38.3811 47.96 38.1911 48.08 38.0111 48.21ZM14.9611 60.75C15.1611 62.86 15.3911 64.89 17.5211 65.9C19.6111 66.89 21.4711 66.03 23.0711 64.78C24.2111 63.89 25.2511 62.76 26.0611 61.55C29.2211 56.89 30.1811 51.5 30.8911 46.06C31.0611 44.75 30.3411 44.58 29.2411 44.86C25.6411 45.79 22.5311 47.56 19.9811 50.25C17.1811 53.22 15.2811 56.66 14.9611 60.75Z" fill="white"/>
<path id="Vector_3" d="M151.001 17.3C149.841 27.22 147.531 36.68 144.511 45.97C143.001 50.6 141.401 55.2 139.771 59.79C139.311 61.08 139.351 61.69 140.891 62.15C142.841 62.73 144.851 63.53 146.481 64.71C148.971 66.5 150.061 69.14 150.461 72.28C151.761 82.56 146.281 93.09 137.451 96.76C129.901 99.89 116.771 95.91 115.791 83.46C114.911 72.26 123.081 62.23 131.061 60.21C131.611 60.07 132.231 58.83 132.221 58.1C132.181 49.53 131.891 40.97 131.941 32.4C131.981 25.36 132.611 18.34 135.471 11.79C136.371 9.72999 137.641 7.70999 139.181 6.07999C142.351 2.69999 146.991 3.42999 148.721 7.71999C149.941 10.73 150.271 14.09 151.001 17.3ZM128.231 78.58C128.101 82.2 131.051 85.62 134.371 85.69C138.141 85.77 141.861 82.16 142.031 78.25C142.201 74.3 139.421 72.02 134.241 71.88C131.151 71.79 128.361 74.89 128.231 78.58Z" fill="white"/>
<path id="Vector_4" d="M70.6011 28.25C69.5711 39.25 68.6411 48.67 67.8211 58.08C67.5211 61.5 67.7511 61.45 71.1111 61.48C74.1911 61.5 77.4111 61.45 80.3111 62.32C88.0211 64.63 91.9411 73.86 88.8411 82.23C85.6511 90.82 78.8711 95.04 70.1711 96.68C61.3311 98.35 51.4411 89.88 52.1611 80.54C52.7211 73.34 56.3411 67.65 61.9511 63.35C63.9411 61.82 64.2011 60.67 63.5311 58.33C60.1611 46.55 56.8911 34.74 53.9211 22.86C52.5811 17.49 52.6411 11.94 55.3111 6.83999C56.2211 5.10999 57.4511 3.41999 58.9111 2.14999C61.3211 0.0399903 63.7811 0.41999 65.9211 2.79999C68.2511 5.38999 69.2511 8.62999 69.5811 11.92C70.1711 17.86 70.3411 23.83 70.6011 28.25ZM64.4411 77.6C65.0511 79.78 65.4511 82.06 66.3211 84.13C67.5911 87.15 69.7711 88.05 73.0011 87.34C78.7211 86.08 83.2411 80.13 82.9111 74.28C82.6911 70.43 79.8911 67.19 76.5111 66.87C70.4111 66.3 64.7811 71.4 64.4411 77.6Z" fill="white"/>
<path id="Vector_5" d="M101.551 39.2C100.441 39.2 99.3311 39.19 98.2211 39.2C88.8811 39.26 85.4011 33.16 84.9411 26.26C84.2411 15.65 90.9211 5.32999 100.851 1.71999C105.351 0.0799866 110.021 -0.320013 114.271 2.54999C118.171 5.17999 119.981 9.93999 118.891 13.96C117.881 17.68 114.331 20.13 109.301 20.53C106.431 20.76 103.561 20.93 100.681 21.12C97.2311 21.35 94.6111 22.98 94.2011 25.18C93.8011 27.31 95.7911 30.02 99.0811 31C102.531 32.03 106.151 32.51 109.661 33.35C112.461 34.01 115.341 34.54 117.961 35.66C122.261 37.49 125.471 40.59 125.661 45.59C125.861 50.75 122.741 54.09 118.401 56.04C109.181 60.17 99.7011 60.04 90.3511 56.53C87.5911 55.49 84.9711 53.76 82.6911 51.86C80.2711 49.85 79.8711 47.01 80.9811 44.88C81.9811 42.96 84.7011 41.68 87.6011 42.45C91.2211 43.41 94.7011 44.89 98.2311 46.17C101.821 47.47 105.321 49.13 109.011 50.04C112.561 50.92 115.781 49.29 116.381 47.08C116.921 45.09 114.921 41.82 111.731 40.76C108.501 39.69 105.011 39.38 101.631 38.73C101.621 38.87 101.591 39.04 101.551 39.2Z" fill="white"/>
<g id="Group_2">
<g id="Group_3">
<path id="Vector_6" d="M23.18 129.09V130.66H21.83C20.72 130.66 19.88 130.4 19.33 129.88C18.78 129.36 18.5 128.48 18.5 127.26V121.47H16.87V119.92H18.5V117.24H20.33V119.92H23.15V121.47H20.33V127.3C20.33 127.99 20.46 128.47 20.72 128.72C20.98 128.97 21.43 129.1 22.06 129.1H23.18V129.09Z" fill="white"/>
<path id="Vector_7" d="M34.22 120.94C35 121.74 35.39 122.9 35.39 124.41V130.66H33.58V124.57C33.58 123.5 33.3 122.68 32.75 122.1C32.19 121.53 31.44 121.24 30.48 121.24C29.49 121.24 28.69 121.56 28.09 122.19C27.49 122.82 27.2 123.75 27.2 124.96V130.66H25.39V116.17H27.2V122.45C27.48 121.58 27.97 120.9 28.68 120.43C29.39 119.96 30.21 119.73 31.14 119.73C32.41 119.74 33.44 120.14 34.22 120.94Z" fill="white"/>
<path id="Vector_8" d="M48.14 125.67H39.41C39.45 126.9 39.8 127.82 40.47 128.43C41.14 129.04 41.96 129.35 42.93 129.35C43.81 129.35 44.54 129.13 45.13 128.69C45.72 128.25 46.08 127.67 46.21 126.94H48.14C48.01 127.68 47.71 128.35 47.26 128.94C46.8 129.53 46.21 129.98 45.48 130.31C44.75 130.64 43.93 130.8 43.02 130.8C41.97 130.8 41.04 130.58 40.24 130.13C39.44 129.68 38.8 129.05 38.34 128.22C37.88 127.39 37.65 126.42 37.65 125.29C37.65 124.17 37.88 123.19 38.34 122.35C38.8 121.52 39.43 120.88 40.24 120.43C41.05 119.99 41.98 119.76 43.02 119.76C44.08 119.76 45 119.98 45.79 120.43C46.58 120.87 47.18 121.47 47.6 122.21C48.02 122.95 48.23 123.78 48.23 124.68C48.22 125.07 48.19 125.39 48.14 125.67ZM45.99 122.81C45.68 122.27 45.27 121.88 44.74 121.62C44.21 121.36 43.63 121.23 43.01 121.23C42.02 121.23 41.18 121.53 40.5 122.14C39.82 122.75 39.46 123.64 39.41 124.81H46.39C46.43 124.01 46.29 123.34 45.99 122.81Z" fill="white"/>
<path id="Vector_9" d="M64.1 120.44C64.86 120.88 65.45 121.52 65.88 122.36C66.31 123.2 66.53 124.17 66.53 125.3C66.53 126.42 66.31 127.4 65.88 128.23C65.45 129.06 64.86 129.7 64.1 130.14C63.35 130.58 62.48 130.81 61.52 130.81C60.46 130.81 59.56 130.55 58.83 130.02C58.09 129.49 57.59 128.8 57.31 127.94V135.77H55.5V119.93H57.3V122.67C57.58 121.81 58.09 121.11 58.82 120.59C59.56 120.06 60.45 119.8 61.51 119.8C62.48 119.78 63.35 120 64.1 120.44ZM59.09 121.84C58.52 122.16 58.08 122.62 57.76 123.22C57.44 123.82 57.28 124.51 57.28 125.3C57.28 126.09 57.44 126.77 57.76 127.37C58.08 127.97 58.52 128.42 59.09 128.75C59.66 129.08 60.3 129.24 61 129.24C62.13 129.24 63.02 128.89 63.69 128.19C64.36 127.49 64.69 126.53 64.69 125.3C64.69 124.07 64.36 123.11 63.69 122.41C63.02 121.71 62.12 121.36 61 121.36C60.3 121.36 59.66 121.52 59.09 121.84Z" fill="white"/>
<path id="Vector_10" d="M76.66 120.44C77.49 120.88 78.14 121.52 78.61 122.36C79.08 123.2 79.32 124.17 79.32 125.3C79.32 126.42 79.08 127.4 78.61 128.23C78.14 129.06 77.49 129.7 76.66 130.14C75.83 130.58 74.89 130.81 73.85 130.81C72.81 130.81 71.87 130.59 71.04 130.14C70.21 129.7 69.56 129.06 69.08 128.23C68.6 127.4 68.36 126.43 68.36 125.3C68.36 124.18 68.6 123.2 69.08 122.36C69.56 121.53 70.21 120.89 71.04 120.44C71.87 120 72.81 119.77 73.85 119.77C74.89 119.77 75.83 120 76.66 120.44ZM72.04 121.77C71.49 122.06 71.05 122.5 70.71 123.09C70.37 123.68 70.2 124.42 70.2 125.29C70.2 126.15 70.37 126.88 70.71 127.47C71.05 128.06 71.49 128.51 72.04 128.79C72.59 129.08 73.19 129.22 73.84 129.22C74.49 129.22 75.09 129.08 75.64 128.79C76.19 128.5 76.63 128.06 76.97 127.47C77.31 126.88 77.48 126.15 77.48 125.29C77.48 124.42 77.31 123.68 76.97 123.09C76.63 122.5 76.19 122.06 75.64 121.77C75.09 121.48 74.49 121.34 73.84 121.34C73.19 121.34 72.59 121.49 72.04 121.77Z" fill="white"/>
<path id="Vector_11" d="M86.88 129.09V130.66H85.53C84.42 130.66 83.58 130.4 83.03 129.88C82.48 129.36 82.2 128.48 82.2 127.26V121.47H80.57V119.92H82.2V117.24H84.03V119.92H86.85V121.47H84.03V127.3C84.03 127.99 84.16 128.47 84.42 128.72C84.68 128.97 85.13 129.1 85.76 129.1H86.88V129.09Z" fill="white"/>
<path id="Vector_12" d="M101.77 120.44C102.6 120.88 103.25 121.52 103.72 122.36C104.19 123.2 104.43 124.17 104.43 125.3C104.43 126.42 104.19 127.4 103.72 128.23C103.25 129.06 102.6 129.7 101.77 130.14C100.94 130.58 100 130.81 98.96 130.81C97.91 130.81 96.97 130.59 96.15 130.14C95.33 129.69 94.67 129.06 94.19 128.23C93.71 127.4 93.47 126.43 93.47 125.3C93.47 124.18 93.71 123.2 94.19 122.36C94.67 121.53 95.32 120.89 96.15 120.44C96.98 120 97.92 119.77 98.96 119.77C100 119.78 100.94 120 101.77 120.44ZM97.15 121.77C96.6 122.06 96.16 122.5 95.82 123.09C95.48 123.68 95.31 124.42 95.31 125.29C95.31 126.15 95.48 126.88 95.82 127.47C96.16 128.06 96.6 128.51 97.15 128.79C97.7 129.07 98.3 129.22 98.95 129.22C99.6 129.22 100.2 129.08 100.75 128.79C101.3 128.5 101.74 128.06 102.08 127.47C102.42 126.88 102.59 126.15 102.59 125.29C102.59 124.42 102.42 123.68 102.08 123.09C101.74 122.5 101.3 122.06 100.75 121.77C100.2 121.48 99.6 121.34 98.95 121.34C98.3 121.34 97.7 121.49 97.15 121.77Z" fill="white"/>
<path id="Vector_13" d="M109.6 117.86C109.22 118.2 109.03 118.79 109.03 119.62V119.91H111.61V121.48H109.03V130.66H107.22V121.48H105.65V119.91H107.22V119.48C107.22 116.91 108.68 115.68 111.61 115.8V117.37C110.65 117.35 109.98 117.52 109.6 117.86Z" fill="white"/>
<path id="Vector_14" d="M127.32 120.94C128.1 121.74 128.49 122.9 128.49 124.41V130.66H126.68V124.57C126.68 123.5 126.4 122.68 125.85 122.1C125.29 121.53 124.54 121.24 123.58 121.24C122.59 121.24 121.79 121.56 121.19 122.19C120.59 122.82 120.3 123.75 120.3 124.96V130.66H118.49V116.17H120.3V122.45C120.58 121.58 121.07 120.9 121.78 120.43C122.49 119.96 123.31 119.73 124.24 119.73C125.51 119.74 126.54 120.14 127.32 120.94Z" fill="white"/>
<path id="Vector_15" d="M138.45 120.56C139.19 121.08 139.7 121.78 139.99 122.65V119.91H141.8V130.66H139.99V127.92C139.7 128.8 139.19 129.49 138.45 130.01C137.71 130.53 136.82 130.79 135.76 130.79C134.79 130.79 133.93 130.57 133.18 130.12C132.43 129.67 131.83 129.04 131.4 128.21C130.97 127.38 130.75 126.41 130.75 125.28C130.75 124.16 130.97 123.18 131.4 122.34C131.83 121.51 132.42 120.87 133.18 120.42C133.94 119.98 134.8 119.75 135.76 119.75C136.81 119.78 137.71 120.04 138.45 120.56ZM133.6 122.41C132.93 123.11 132.6 124.07 132.6 125.3C132.6 126.53 132.93 127.49 133.6 128.19C134.27 128.89 135.16 129.24 136.27 129.24C136.99 129.24 137.63 129.08 138.19 128.75C138.75 128.42 139.19 127.96 139.51 127.37C139.83 126.78 139.99 126.09 139.99 125.3C139.99 124.51 139.83 123.83 139.51 123.22C139.19 122.62 138.75 122.16 138.19 121.84C137.63 121.52 136.99 121.36 136.27 121.36C135.16 121.36 134.27 121.71 133.6 122.41Z" fill="white"/>
<path id="Vector_16" d="M153.29 120.44C154.05 120.88 154.64 121.52 155.07 122.36C155.5 123.2 155.72 124.17 155.72 125.3C155.72 126.42 155.5 127.4 155.07 128.23C154.64 129.06 154.05 129.7 153.29 130.14C152.54 130.58 151.67 130.81 150.71 130.81C149.65 130.81 148.75 130.55 148.02 130.02C147.28 129.49 146.78 128.8 146.5 127.94V135.77H144.69V119.93H146.5V122.67C146.78 121.81 147.29 121.11 148.02 120.59C148.76 120.06 149.65 119.8 150.71 119.8C151.67 119.78 152.53 120 153.29 120.44ZM148.28 121.84C147.71 122.16 147.27 122.62 146.95 123.22C146.63 123.82 146.47 124.51 146.47 125.3C146.47 126.09 146.63 126.77 146.95 127.37C147.27 127.97 147.71 128.42 148.28 128.75C148.85 129.08 149.49 129.24 150.19 129.24C151.32 129.24 152.21 128.89 152.88 128.19C153.55 127.49 153.88 126.53 153.88 125.3C153.88 124.07 153.55 123.11 152.88 122.41C152.21 121.71 151.31 121.36 150.19 121.36C149.49 121.36 148.85 121.52 148.28 121.84Z" fill="white"/>
<path id="Vector_17" d="M166.69 120.44C167.45 120.88 168.04 121.52 168.47 122.36C168.9 123.2 169.12 124.17 169.12 125.3C169.12 126.42 168.9 127.4 168.47 128.23C168.04 129.06 167.45 129.7 166.69 130.14C165.93 130.58 165.07 130.81 164.11 130.81C163.05 130.81 162.15 130.55 161.42 130.02C160.68 129.49 160.18 128.8 159.9 127.94V135.77H158.09V119.93H159.9V122.67C160.18 121.81 160.69 121.11 161.42 120.59C162.16 120.06 163.05 119.8 164.11 119.8C165.07 119.78 165.93 120 166.69 120.44ZM161.68 121.84C161.11 122.16 160.67 122.62 160.35 123.22C160.03 123.82 159.87 124.51 159.87 125.3C159.87 126.09 160.03 126.77 160.35 127.37C160.67 127.96 161.11 128.42 161.68 128.75C162.25 129.08 162.89 129.24 163.59 129.24C164.72 129.24 165.61 128.89 166.28 128.19C166.95 127.49 167.28 126.53 167.28 125.3C167.28 124.07 166.95 123.11 166.28 122.41C165.61 121.71 164.71 121.36 163.59 121.36C162.88 121.36 162.25 121.52 161.68 121.84Z" fill="white"/>
<path id="Vector_18" d="M171.5 115.97C171.72 115.77 172.02 115.67 172.39 115.67C172.76 115.67 173.06 115.77 173.28 115.97C173.5 116.17 173.62 116.44 173.62 116.76C173.62 117.08 173.51 117.35 173.28 117.55C173.05 117.75 172.76 117.85 172.39 117.85C172.02 117.85 171.72 117.75 171.5 117.55C171.27 117.35 171.16 117.08 171.16 116.76C171.16 116.44 171.28 116.17 171.5 115.97ZM173.29 119.91V130.66H171.48V119.91H173.29Z" fill="white"/>
<path id="Vector_19" d="M185.02 120.94C185.8 121.74 186.19 122.9 186.19 124.41V130.66H184.38V124.57C184.38 123.5 184.1 122.68 183.55 122.1C182.99 121.53 182.24 121.24 181.28 121.24C180.29 121.24 179.49 121.56 178.89 122.19C178.29 122.82 178 123.75 178 124.96V130.66H176.19V119.91H178V122.45C178.28 121.58 178.77 120.9 179.48 120.43C180.19 119.96 181.01 119.73 181.94 119.73C183.21 119.74 184.24 120.14 185.02 120.94Z" fill="white"/>
<path id="Vector_20" d="M198.94 125.67H190.21C190.25 126.9 190.6 127.82 191.27 128.43C191.94 129.04 192.76 129.35 193.73 129.35C194.61 129.35 195.34 129.13 195.93 128.69C196.52 128.25 196.88 127.67 197.01 126.94H198.94C198.81 127.68 198.51 128.35 198.06 128.94C197.6 129.53 197.01 129.98 196.28 130.31C195.55 130.64 194.73 130.8 193.81 130.8C192.76 130.8 191.84 130.58 191.03 130.13C190.22 129.68 189.59 129.05 189.13 128.22C188.67 127.39 188.44 126.42 188.44 125.29C188.44 124.17 188.67 123.19 189.13 122.35C189.59 121.52 190.22 120.88 191.03 120.43C191.84 119.99 192.77 119.76 193.81 119.76C194.87 119.76 195.8 119.98 196.58 120.43C197.37 120.87 197.97 121.47 198.39 122.21C198.81 122.95 199.02 123.78 199.02 124.68C199.02 125.07 198.99 125.39 198.94 125.67ZM196.79 122.81C196.49 122.27 196.07 121.88 195.54 121.62C195.01 121.36 194.43 121.23 193.81 121.23C192.82 121.23 191.98 121.53 191.31 122.14C190.63 122.75 190.27 123.64 190.22 124.81H197.2C197.23 124.01 197.09 123.34 196.79 122.81Z" fill="white"/>
<path id="Vector_21" d="M207.77 120.72C208.52 121.35 208.97 122.21 209.13 123.27H207.4C207.32 122.63 207.05 122.1 206.59 121.69C206.13 121.28 205.52 121.07 204.75 121.07C204.1 121.07 203.59 121.22 203.23 121.53C202.86 121.84 202.68 122.25 202.68 122.77C202.68 123.16 202.8 123.48 203.05 123.72C203.3 123.96 203.6 124.14 203.96 124.27C204.32 124.4 204.83 124.53 205.46 124.67C206.27 124.85 206.92 125.04 207.42 125.23C207.92 125.42 208.34 125.72 208.69 126.14C209.04 126.56 209.22 127.12 209.22 127.82C209.22 128.7 208.89 129.41 208.22 129.95C207.55 130.5 206.66 130.77 205.55 130.77C204.25 130.77 203.19 130.46 202.37 129.85C201.55 129.24 201.06 128.38 200.92 127.29H202.67C202.74 127.94 203.02 128.47 203.53 128.88C204.04 129.28 204.71 129.49 205.55 129.49C206.17 129.49 206.66 129.33 207.01 129.02C207.36 128.71 207.54 128.3 207.54 127.79C207.54 127.37 207.41 127.04 207.16 126.79C206.91 126.54 206.6 126.35 206.23 126.22C205.86 126.09 205.35 125.95 204.7 125.81C203.89 125.63 203.24 125.44 202.76 125.26C202.28 125.08 201.87 124.79 201.53 124.39C201.19 123.99 201.02 123.45 201.02 122.77C201.02 121.87 201.36 121.14 202.03 120.59C202.7 120.04 203.63 119.76 204.79 119.76C206.03 119.78 207.03 120.09 207.77 120.72Z" fill="white"/>
<path id="Vector_22" d="M218.05 120.72C218.8 121.35 219.25 122.21 219.41 123.27H217.68C217.6 122.63 217.33 122.1 216.87 121.69C216.41 121.28 215.8 121.07 215.03 121.07C214.38 121.07 213.87 121.22 213.51 121.53C213.14 121.84 212.96 122.25 212.96 122.77C212.96 123.16 213.08 123.48 213.33 123.72C213.58 123.96 213.88 124.14 214.24 124.27C214.6 124.4 215.11 124.53 215.74 124.67C216.55 124.85 217.2 125.04 217.7 125.23C218.2 125.42 218.62 125.72 218.97 126.14C219.32 126.56 219.5 127.12 219.5 127.82C219.5 128.7 219.17 129.41 218.5 129.95C217.83 130.5 216.94 130.77 215.83 130.77C214.53 130.77 213.47 130.46 212.65 129.85C211.83 129.24 211.34 128.38 211.2 127.29H212.95C213.02 127.94 213.3 128.47 213.81 128.88C214.32 129.28 214.99 129.49 215.83 129.49C216.45 129.49 216.94 129.33 217.29 129.02C217.64 128.71 217.82 128.3 217.82 127.79C217.82 127.37 217.69 127.04 217.44 126.79C217.19 126.54 216.88 126.35 216.51 126.22C216.14 126.09 215.63 125.95 214.98 125.81C214.17 125.63 213.52 125.44 213.04 125.26C212.56 125.08 212.15 124.79 211.81 124.39C211.47 123.99 211.3 123.45 211.3 122.77C211.3 121.87 211.64 121.14 212.31 120.59C212.98 120.04 213.91 119.76 215.07 119.76C216.31 119.78 217.3 120.09 218.05 120.72Z" fill="white"/>
<path id="Vector_23" d="M223.27 128.57V130.66H221.08V128.57H223.27Z" fill="white"/>
</g>
<path id="Vector_24" d="M230.37 110.5H12V141.74H230.37V110.5Z" stroke="#A80404" stroke-miterlimit="10"/>
</g>
</g>
</svg>
