<?xml version="1.0" encoding="utf-8"?>
<!-- Generator: Adobe Illustrator 23.0.2, SVG Export Plug-In . SVG Version: 6.00 Build 0)  -->
<svg version="1.1" id="Layer_1" xmlns="http://www.w3.org/2000/svg" xmlns:xlink="http://www.w3.org/1999/xlink" x="0px" y="0px"
	 viewBox="0 0 169.53 219.57" style="enable-background:new 0 0 169.53 219.57;" xml:space="preserve">
<style type="text/css">
	.st0{fill:#111519;}
	.st1{opacity:0.49;fill:#1D2326;}
	.st2{fill:#A80404;}
	.st3{opacity:0.46;}
	.st4{fill:#E2E2E2;}
	.st5{fill:#FFFFFF;}
	.st6{opacity:0.22;}
	.st7{opacity:0.49;fill:#727475;}
	.st8{opacity:0.08;fill:#323333;}
	.st9{fill:none;stroke:#E40404;stroke-linecap:round;stroke-miterlimit:10;}
	.st10{fill:#919191;}
	.st11{fill:#1D2326;}
	.st12{fill:#A80404;stroke:#A80404;stroke-width:2;stroke-miterlimit:10;}
	.st13{fill:none;stroke:#1D2326;stroke-miterlimit:10;}
	.st14{fill:none;stroke:#A80404;stroke-miterlimit:10;}
	.st15{fill:none;stroke:#B70F0F;stroke-miterlimit:10;}
	.st16{opacity:0.85;}
	.st17{opacity:0.63;fill:#E6E8E8;}
	.st18{fill:none;stroke:#000000;stroke-miterlimit:10;}
	.st19{opacity:0.25;fill:#5EBFDD;}
</style>
<g>
	<path class="st2" d="M104.69,80.99c-4.66-2.71-9.11-5.32-13.59-7.86c-0.79-0.45-1.74-0.67-2.65-0.85
		c-3.14-0.62-6.12-0.17-8.91,1.44c-2.52,1.45-5.03,2.91-7.56,4.35c-5.71,3.26-11.44,3.3-17.15,0.04
		c-10.58-6.03-21.15-12.09-31.72-18.15c-0.29-0.17-0.56-0.36-1-0.64c0.44-0.27,0.75-0.47,1.06-0.65
		C41.3,48.19,59.43,37.7,77.58,27.26c5.59-3.22,11.3-3.21,16.87,0.02c15.01,8.68,29.99,17.42,44.99,26.13
		c2.1,1.22,3.87,2.78,5.36,4.81c1.67-0.94,3.3-1.86,5.08-2.87c0.04,0.49,0.09,0.78,0.09,1.07c0.08,11.51,0.14,23.01,0.23,34.52
		c0.02,2.93-0.68,5.67-1.84,8.34c-0.31,0.7-0.49,1.52-0.49,2.28c-0.03,20.1-0.04,40.2-0.01,60.3c0.01,7.11-2.96,12.35-9.19,15.91
		c-14.69,8.4-29.32,16.92-43.98,25.38c-5.77,3.33-11.56,3.33-17.33,0c-14.96-8.63-29.91-17.28-44.87-25.91
		c-4.67-2.69-7.55-6.68-8.34-12c-0.32-2.17-0.14-4.42-0.13-6.64c0.02-6.93,0.09-13.86,0.11-20.79c0.02-6.99,3.05-12.11,9.15-15.61
		c22.45-12.89,44.86-25.86,67.28-38.8C101.87,82.65,103.17,81.88,104.69,80.99z M146.33,61.77c-0.51,0.24-0.82,0.37-1.12,0.54
		c-3.6,2.06-7.18,4.14-10.79,6.18c-9.17,5.19-18.38,10.3-27.51,15.55c-24.19,13.9-48.35,27.85-72.5,41.8
		c-4.31,2.49-6.49,6.28-6.53,11.28c-0.07,8.39-0.12,16.77-0.22,25.16c-0.06,5.26,2.18,9.18,6.71,11.8
		c14.89,8.61,29.8,17.2,44.68,25.83c4.64,2.69,9.21,2.74,13.86,0.05c14.77-8.55,29.54-17.09,44.32-25.61
		c4.61-2.66,6.89-6.57,6.88-11.92c-0.04-18.61-0.01-37.22-0.02-55.83c0-0.36-0.03-0.72-0.05-1.08c-1.54,1.03-2.95,2.09-4.47,2.96
		c-9.46,5.42-18.94,10.8-28.42,16.19c-0.52,0.29-0.97,0.52-0.96,1.29c0.07,4.96,0.05,9.91,0.12,14.87c0.09,6.54-2.56,11.58-8.15,15
		c-2.57,1.57-5.21,3.02-7.84,4.48c-5.57,3.08-11.16,3.08-16.7-0.05c-5.61-3.16-11.18-6.38-16.77-9.57
		c-0.29-0.16-0.56-0.36-0.96-0.62c0.4-0.26,0.67-0.45,0.96-0.62c2.43-1.41,4.85-2.81,7.28-4.21c16-9.24,32-18.48,48.01-27.71
		c7.21-4.16,14.45-8.28,21.69-12.39c4.22-2.39,7-5.87,8.18-10.6c0.67-2.69,0.47-5.42,0.44-8.16c-0.1-7.73-0.09-15.46-0.12-23.19
		C146.33,62.78,146.33,62.37,146.33,61.77z M29.44,59.3c0.43,0.27,0.69,0.44,0.95,0.59c8.77,5.02,17.54,10.04,26.32,15.05
		c4.47,2.55,8.94,2.52,13.4-0.04c2.31-1.33,4.63-2.65,6.92-3.99c6.01-3.52,11.99-3.48,17.96,0.11c4.15,2.49,8.35,4.93,12.5,7.42
		c0.65,0.39,1.13,0.38,1.79,0c7.96-4.55,15.94-9.07,23.91-13.61c2.77-1.57,5.53-3.15,8.35-4.76c-1.1-1.6-2.56-2.69-4.15-3.61
		c-14.84-8.62-29.69-17.24-44.52-25.88c-4.6-2.68-9.16-2.65-13.76,0.02c-13.27,7.68-26.55,15.34-39.83,23
		C36.04,55.47,32.81,57.35,29.44,59.3z M106.48,127.46c-13.15,7.59-26.02,15.02-39.05,22.54c0.52,0.33,0.88,0.58,1.25,0.8
		c3.56,2.05,7.12,4.11,10.69,6.14c4,2.27,8.13,2.66,12.28,0.49c2.94-1.53,5.82-3.18,8.65-4.9c4.3-2.6,6.34-6.51,6.31-11.5
		c-0.02-3.22-0.09-6.44-0.13-9.66C106.47,130.17,106.48,128.96,106.48,127.46z"/>
</g>
</svg>
