<svg width="21" height="30" viewBox="0 0 21 30" fill="none" xmlns="http://www.w3.org/2000/svg">
<path id="logo" d="M13.7 9.24999L11.54 7.99999C11.4068 7.93717 11.2654 7.89341 11.12 7.86999C10.6345 7.76789 10.1284 7.84986 9.69999 8.09999L8.48999 8.78999C8.08048 9.04531 7.60757 9.18066 7.12499 9.18066C6.64241 9.18066 6.1695 9.04531 5.75999 8.78999L0.699987 5.89999L0.549988 5.78999L0.709988 5.68999L9.37999 0.689991C9.783 0.437036 10.2492 0.302856 10.725 0.302856C11.2008 0.302856 11.667 0.437036 12.07 0.689991L19.24 4.84999C19.5727 5.04618 19.862 5.30819 20.09 5.61999L20.9 5.15999C20.9 5.23999 20.9 5.28999 20.9 5.32999V10.83C20.9005 11.2891 20.8015 11.7428 20.61 12.16C20.5588 12.2732 20.5315 12.3958 20.53 12.52V22.13C20.5532 22.6483 20.4281 23.1626 20.1696 23.6124C19.911 24.0623 19.5296 24.4291 19.07 24.67C16.72 26.01 14.39 27.36 12.07 28.67C11.6567 28.9302 11.1783 29.0683 10.69 29.0683C10.2016 29.0683 9.72324 28.9302 9.30999 28.67C6.92332 27.3033 4.53999 25.9267 2.15999 24.54C1.80056 24.3527 1.49184 24.0811 1.26022 23.7485C1.02861 23.4158 0.88099 23.0321 0.829988 22.63C0.804921 22.2804 0.804921 21.9295 0.829988 21.58C0.829988 20.47 0.829988 19.37 0.829988 18.26C0.810671 17.7502 0.936738 17.2454 1.19348 16.8045C1.45022 16.3636 1.82705 16.0048 2.27999 15.77C5.85999 13.77 9.42999 11.65 13 9.58999L13.7 9.24999ZM20.34 6.17999L20.16 6.26999L18.44 7.26999L14.06 9.74999L2.49999 16.39C2.18575 16.5711 1.92669 16.8343 1.75054 17.1514C1.57439 17.4685 1.48778 17.8275 1.49999 18.19V22.19C1.47075 22.5674 1.54919 22.9453 1.72621 23.2798C1.90322 23.6144 2.17154 23.8919 2.49999 24.08L9.61999 28.19C9.94654 28.405 10.329 28.5197 10.72 28.5197C11.111 28.5197 11.4934 28.405 11.82 28.19L18.89 24.11C19.2389 23.9372 19.5298 23.6663 19.7269 23.3306C19.9241 22.9949 20.019 22.6089 20 22.22V13.33C20 13.27 20 13.21 20 13.15C19.7727 13.3204 19.5357 13.4774 19.29 13.62C17.7633 14.4867 16.2433 15.3467 14.73 16.2C14.65 16.25 14.58 16.29 14.58 16.41C14.58 17.2 14.58 17.99 14.58 18.78C14.6052 19.2596 14.497 19.7367 14.2675 20.1586C14.0381 20.5805 13.6963 20.9305 13.28 21.17C12.87 21.42 12.45 21.65 12.03 21.88C11.6288 22.1226 11.1689 22.2509 10.7 22.2509C10.2311 22.2509 9.77119 22.1226 9.36999 21.88L6.69999 20.36L6.54999 20.26L6.69999 20.16L7.85999 19.49L15.51 15.08C16.66 14.41 17.81 13.76 18.96 13.08C19.2869 12.9088 19.573 12.6693 19.7991 12.3777C20.0251 12.0861 20.1857 11.7492 20.27 11.39C20.3436 10.9608 20.3671 10.5246 20.34 10.09C20.34 8.85999 20.34 7.62999 20.34 6.39999V6.17999ZM1.70999 5.78999L1.85999 5.88999L6.05999 8.27999C6.37896 8.48066 6.74814 8.58713 7.12499 8.58713C7.50183 8.58713 7.87101 8.48066 8.18999 8.27999L9.29999 7.63999C9.72544 7.36286 10.2222 7.21533 10.73 7.21533C11.2377 7.21533 11.7345 7.36286 12.16 7.63999L14.16 8.81999C14.2008 8.84929 14.2498 8.86505 14.3 8.86505C14.3502 8.86505 14.3992 8.84929 14.44 8.81999L18.25 6.64999L19.58 5.89999C19.4101 5.6562 19.1836 5.45719 18.92 5.31999L11.82 1.21999C11.4945 1.00703 11.114 0.893602 10.725 0.893602C10.336 0.893602 9.95548 1.00703 9.62999 1.21999L3.27999 4.87999L1.70999 5.78999ZM14 16.65L7.77999 20.24L7.96999 20.37L9.67999 21.37C9.97469 21.5644 10.3173 21.6738 10.6701 21.6862C11.023 21.6985 11.3724 21.6133 11.68 21.44C12.1467 21.2 12.6067 20.94 13.06 20.66C13.3789 20.4765 13.6409 20.2085 13.8174 19.8856C13.9938 19.5628 14.0778 19.1975 14.06 18.83C14.06 18.32 14.06 17.83 14.06 17.29L14 16.65Z" fill="black"/>
</svg>
