<svg id="Layer_1" data-name="Layer 1" xmlns="http://www.w3.org/2000/svg" viewBox="0 0 30.64 35.56">
    <style>
        .svglogo{fill:#a80404}
    </style>
<title>Stroke logo</title>
<path class="svglogo" d="M18.7,11.25,16.54,10a1.57,1.57,0,0,0-.42-.13,2,2,0,0,0-1.42.23l-1.21.69a2.58,2.58,0,0,1-2.73,0L5.7,7.9l-.15-.11.16-.1,8.67-5a2.53,2.53,0,0,1,2.69,0l7.17,4.16a2.84,2.84,0,0,1,.85.77l.81-.46c0,.08,0,.13,0,.17l0,5.5a3.18,3.18,0,0,1-.29,1.33.9.9,0,0,0-.08.36v9.61a2.73,2.73,0,0,1-1.46,2.54c-2.35,1.34-4.68,2.69-7,4a2.59,2.59,0,0,1-2.76,0q-3.58-2.05-7.15-4.13a2.51,2.51,0,0,1-1.33-1.91,7.34,7.34,0,0,1,0-1.05c0-1.11,0-2.21,0-3.32a2.69,2.69,0,0,1,1.45-2.49c3.58-2,7.15-4.12,10.72-6.18Zm6.64-3.07-.18.09-1.72,1-4.38,2.48L7.5,18.39a2,2,0,0,0-1,1.8l0,4A2,2,0,0,0,7.5,26.08l7.12,4.11a2,2,0,0,0,2.2,0l7.07-4.08A2,2,0,0,0,25,24.22V15.33c0-.06,0-.12,0-.18a7.25,7.25,0,0,1-.71.47Q22,16.92,19.73,18.2c-.08.05-.15.09-.15.21,0,.79,0,1.58,0,2.37a2.6,2.6,0,0,1-1.3,2.39c-.41.25-.83.48-1.25.71a2.57,2.57,0,0,1-2.66,0l-2.67-1.52-.15-.1.15-.1,1.16-.67,7.65-4.41c1.15-.67,2.3-1.32,3.45-2a2.57,2.57,0,0,0,1.31-1.69,5.62,5.62,0,0,0,.07-1.3c0-1.23,0-2.46,0-3.69ZM6.71,7.79l.15.1,4.2,2.39a2,2,0,0,0,2.13,0l1.11-.64a2.62,2.62,0,0,1,2.86,0l2,1.18a.24.24,0,0,0,.28,0l3.81-2.17,1.33-.75a1.84,1.84,0,0,0-.66-.58L16.82,3.22a2,2,0,0,0-2.19,0L8.28,6.88ZM19,18.65l-6.22,3.59.19.13,1.71,1a1.92,1.92,0,0,0,2,.07q.7-.36,1.38-.78a2,2,0,0,0,1-1.83c0-.51,0-1,0-1.54Z"/>
</svg>

