<?xml version="1.0" encoding="utf-8"?>
<!-- Generator: Adobe Illustrator 23.0.2, SVG Export Plug-In . SVG Version: 6.00 Build 0)  -->
<svg version="1.1" id="Layer_1" xmlns="http://www.w3.org/2000/svg" xmlns:xlink="http://www.w3.org/1999/xlink" x="0px" y="0px"
	 viewBox="0 0 242.69 254.3" style="enable-background:new 0 0 242.69 254.3;" xml:space="preserve">
<style type="text/css">
	.st0{fill:#1D2326;}
	.st1{fill:#FFFFFF;}
	.st2{fill:#191919;}
	.st3{fill:#A80404;}
	.st4{fill:none;stroke:#A80404;stroke-width:2;stroke-miterlimit:10;}
	.st5{opacity:0.49;fill:#1D2326;}
	.st6{fill:#919191;}
	.st7{opacity:0.49;fill:#727475;}
	.st8{fill:#A80404;stroke:#FFFFFF;stroke-miterlimit:10;}
	.st9{fill:none;stroke:#A80404;stroke-width:3;stroke-miterlimit:10;}
	.st10{fill:#FFFFFF;stroke:#1D2326;stroke-width:0;stroke-miterlimit:10;}
	.st11{fill:none;stroke:#FFFFFF;stroke-miterlimit:10;}
	.st12{opacity:0.28;fill:none;stroke:#1D2326;stroke-miterlimit:10;}
	.st13{opacity:0.18;}
	.st14{fill:none;stroke:#A80404;stroke-miterlimit:10;}
	.st15{opacity:0.21;fill:none;stroke:#1D2326;stroke-miterlimit:10;}
	.st16{opacity:0.28;fill:#1D2326;}
	.st17{fill:#F1F2F2;}
	.st18{fill:none;stroke:#1D2326;stroke-miterlimit:10;}
	.st19{fill:#A80404;stroke:#A80404;stroke-width:2;stroke-miterlimit:10;}
</style>
<g>
	<path d="M214.19,51.17c-0.47,3.69-0.81,7.4-1.42,11.06c-4.9,29.28-19.09,53.07-42.35,71.48c-2.44,1.93-4.88,3.87-7.39,5.71
		c-0.91,0.67-1.2,1.4-1.19,2.49c0.05,5.79-0.01,11.58,0.03,17.37c0.15,18.78-6.46,34.73-19.83,47.92
		c-6.83,6.73-13.59,13.54-20.34,20.34c-1.3,1.31-2.73,2.04-4.51,1.41c-1.72-0.6-2.4-1.97-2.49-3.78
		c-0.57-11.57-1.19-23.13-1.79-34.69c-0.2-3.77-0.41-7.53-0.61-11.34c-0.35,0.09-0.51,0.08-0.58,0.15
		c-2.66,2.78-5.44,2.78-8.46,0.52c-0.36-0.27-1.42-0.07-1.86,0.28c-3.98,3.2-7.93,6.43-11.81,9.75c-1.76,1.5-3.46,1.64-5.48,0.61
		c-9.87-5.03-17.3-12.44-22.27-22.35c-0.99-1.96-0.8-3.64,0.65-5.32c3.25-3.77,6.41-7.62,9.66-11.4c0.71-0.83,0.98-1.51,0.21-2.41
		c-0.32-0.37-0.52-0.85-0.76-1.28c-1.81-3.21-1.77-3.81,0.47-6.68c0.25-0.33,0.48-0.68,0.86-1.22c-4.33-0.25-8.4-0.51-12.47-0.71
		c-10.94-0.56-21.89-1.1-32.83-1.62c-1.99-0.09-3.73-0.5-4.51-2.6c-0.72-1.95,0.25-3.32,1.56-4.62c8.39-8.26,16.43-16.89,25.2-24.71
		c12.01-10.7,26.45-15.53,42.55-15.25c6.04,0.1,12.08,0.27,18.11,0.52c1.65,0.07,2.69-0.45,3.76-1.71
		c5.27-6.21,10.27-12.74,16.1-18.39c17.99-17.45,39.62-27.63,64.5-30.81c2.71-0.35,5.45-0.58,8.18-0.72
		c6.45-0.35,8.47,0.91,11.11,6.74C214.19,47.68,214.19,49.43,214.19,51.17z M87.94,158.2c0.93-0.89,1.43-1.35,1.9-1.82
		c5.72-5.72,11.45-11.45,17.17-17.17c0.48-0.48,0.96-0.99,1.51-1.38c1.52-1.1,3.48-0.94,4.78,0.33c1.3,1.27,1.51,3.24,0.45,4.77
		c-0.39,0.56-0.89,1.04-1.37,1.53c-5.76,5.77-11.53,11.54-17.3,17.31c-0.47,0.47-0.92,0.98-1.73,1.84c4.11,2.97,8.1,5.79,12.01,8.71
		c1.26,0.94,2.13,0.79,3.35-0.16c14.32-11.19,28.75-22.24,43.02-33.49c8.25-6.51,16.83-12.75,24.27-20.11
		C195.28,99.5,205.13,76.01,206.65,49c0.13-2.27-0.09-2.52-2.38-2.35c-3.35,0.24-6.72,0.39-10.04,0.89
		c-27.1,4.08-49.54,16.56-67.09,37.64c-6.89,8.27-13.6,16.7-20.39,25.06c-9.03,11.11-18.05,22.23-27.08,33.34
		c-0.53,0.65-1.25,1.18-0.5,2.23C82.08,149.83,84.91,153.9,87.94,158.2z M35.27,130.13c0.65,0.16,0.82,0.24,0.99,0.24
		c13.8,0.72,27.6,1.46,41.4,2.11c0.74,0.03,1.75-0.56,2.25-1.17c8.64-10.54,17.22-21.14,25.81-31.72c0.29-0.36,0.52-0.77,0.78-1.15
		c-0.04-0.21-0.08-0.42-0.13-0.63c-4.71,0-9.43,0.07-14.14-0.01c-11.13-0.2-21.43,2.59-30.85,8.48
		C51.32,112.55,44.24,122.09,35.27,130.13z M121.75,216.34c0.19,0.08,0.38,0.15,0.57,0.23c6.62-6.9,13.47-13.61,19.81-20.76
		c5.26-5.93,8.42-13.13,10.45-20.81c2.46-9.3,1.69-18.77,1.73-28.21c0-0.07-0.17-0.14-0.27-0.23c-0.16,0.08-0.33,0.15-0.48,0.26
		c-11.01,8.53-22.03,17.06-33,25.65c-0.55,0.43-0.94,1.45-0.9,2.17c0.5,11.12,1.07,22.24,1.64,33.36
		C121.44,210.78,121.6,213.56,121.75,216.34z M77.47,156.71c-2.61,3.11-5.11,6.03-7.53,9.01c-0.25,0.3-0.24,1.07-0.03,1.44
		c3.66,6.48,8.73,11.58,15.2,15.27c0.4,0.23,1.19,0.35,1.47,0.13c3.07-2.47,6.08-5.02,9.24-7.65
		C88.76,169.66,82.74,163.7,77.47,156.71z"/>
	<path d="M45.97,217.52c-7.16,0.22-11.53-4.34-10.89-11.42c0.22-2.47,0.29-4.99,0.83-7.4c1.28-5.71,4.64-9.98,9.76-12.78
		c3.05-1.67,6.2-3.17,9.33-4.68c2.19-1.06,4.3-0.39,5.26,1.56c0.97,1.94,0.23,3.99-1.95,5.13c-2.64,1.38-5.31,2.71-8,4
		c-4.46,2.15-6.99,5.65-7.5,10.57c-0.17,1.67-0.26,3.35-0.32,5.03c-0.05,1.26,0.49,2.41,1.81,2.4c4.03-0.02,8.26,0.26,11.65-2.37
		c1.81-1.4,3.3-3.35,4.52-5.31c1.54-2.47,2.63-5.21,3.95-7.81c1.21-2.38,3.33-3.22,5.35-2.17c1.94,1.01,2.5,3.14,1.38,5.46
		c-1.41,2.91-2.79,5.83-4.33,8.67c-3.53,6.5-8.99,10.12-16.4,10.74C48.94,217.27,47.45,217.39,45.97,217.52z"/>
	<path d="M144.55,93.85c0-8.82,7.07-15.91,15.89-15.93c8.82-0.02,15.96,7.06,15.99,15.85c0.04,8.86-7.16,16.07-16.01,16.05
		C151.63,109.8,144.56,102.67,144.55,93.85z M160.39,85.44c-4.7,0.04-8.36,3.76-8.33,8.47c0.02,4.66,3.78,8.43,8.42,8.43
		c4.69,0,8.54-3.92,8.47-8.6C168.87,89.08,165.08,85.4,160.39,85.44z"/>
</g>
</svg>